<?xml version="1.0" encoding="utf-8" ?><svg xmlns="http://www.w3.org/2000/svg" xmlns:xlink="http://www.w3.org/1999/xlink" width="1000" height="1000" viewBox="0 0 1000 1000"><path d="M448.051 263.881C460.649 263.065 455.787 264.382 461.923 272.918C483.514 302.951 525.39 300.408 541.31 266.146C542.923 262.676 551.117 263.704 554.252 263.964C595.062 267.977 635.274 278.088 670.992 298.74C676.782 302.088 682.64 305.92 687.747 310.231C691.322 313.239 694.337 317.172 698.279 319.664C703.131 319.975 708.729 320.043 713.641 320.205C715.224 331.747 713.635 348.974 714.521 361.349C715.238 371.369 716.35 375.861 717.669 385.25C718.638 398.518 721.632 416.819 719.031 429.838C716.408 442.964 711.498 460.046 707.577 472.859C701.704 492.053 692.551 511.365 684.295 529.662C678.089 543.412 668.829 557.041 661.715 570.383C649.434 592.293 637.179 614.418 623.553 635.508C615.576 648.277 605.041 657.659 597.038 670.515C589.165 683.162 585.069 696.418 576.953 708.88C573.722 713.841 571.225 720.009 567.956 724.95C557.844 740.233 547.633 755.465 537.574 770.784C533.668 776.806 526.248 793.664 523.33 800.658C522.357 803.23 521.232 805.844 520.02 808.316C511.435 825.823 505.733 844.506 498.118 862.402C495.414 855.529 493.279 846.899 490.612 839.352C483.394 818.925 474.924 799.147 466.099 779.374C462.408 771.104 454.716 760.199 449.638 752.35C442.653 741.55 434.666 730.605 428.085 719.527C415.609 698.525 406.336 676.636 392.088 656.565C389.076 652.322 385.277 649.227 382.634 645.652C377.463 638.924 373.891 630.349 369.05 623.513C358.572 608.717 350.551 593.211 341.538 577.627C319.825 540.082 300.469 500.588 289.148 458.56C286.704 449.485 283.717 440.369 282.662 431.025C281.063 416.9 281.762 401.079 283.378 386.939C284.133 380.337 286.4 373.871 286.771 366.813C287.561 351.784 286.223 335.228 287.644 320.399C292.231 320.332 297.341 320.564 301.748 319.668C307.212 314.891 311.057 310.333 317.305 305.9C356.69 277.956 400.983 268.034 448.051 263.881ZM453.619 275.08C451.943 275.082 449.979 275.031 448.333 275.098C435.296 275.877 422.325 277.512 409.502 279.991C378.205 286.297 338.331 299.521 314.928 322.487C304.149 332.645 307.833 342.756 306.823 355.267C305.554 370.989 301.278 386.736 302.272 402.61C304.945 445.321 349.672 464.136 369.159 497.439C376.312 511.633 369.513 529.228 371.299 544.202C374.304 569.398 384.96 599.109 401.277 618.532C407.554 626.003 428.912 624.118 437.291 621.718C452.441 617.38 471.234 611.259 483.215 600.684C488.641 595.604 488.379 584.014 487.812 576.93C486.164 560.682 474.414 545.027 463.187 534.047C450.158 521.304 425.825 532.729 424.298 509.002C424.025 504.758 424.471 484.483 429.567 483.95C431.207 486.698 432.768 492.465 434.068 495.736C436.09 500.826 438.129 504.583 440.778 509.351C454.447 493.072 475.93 507.945 492.643 508.744C499.252 509.059 506.516 509.173 513.088 508.155C528.685 504.775 543.78 496.741 557.989 508.71C558.747 507.177 559.512 505.566 560.307 504.058C563.907 495.817 565.2 490.542 568.172 482.968L568.561 483.607C573.574 491.95 575.777 500.392 574.13 510.114C571.285 526.91 560.264 525.138 546.871 528.142C531.075 531.685 519.7 548.72 514.22 562.951C511.591 569.641 510.989 591.283 514.434 597.109C523.695 612.772 576.503 629.491 591.484 621.82C604.708 615.048 617.774 582.838 621.523 568.583C624.824 558.064 625.396 547.823 625.843 537.084C626.639 526.496 622.431 511.038 627.661 501.311C647.374 464.647 701.219 446.359 698.429 398.906C697.148 383.854 693.735 368.572 692.397 353.538C691.85 347.4 693.85 334.25 690.502 329.318C674.759 306.128 631.998 289.671 607.141 283.266C587.257 277.963 566.792 275.151 546.215 274.897C543.524 278.902 541.145 282.702 537.572 285.984C510.286 311.052 473.787 303.876 453.619 275.08ZM708.225 432.944C699.078 446.813 695.183 454.491 683.282 466.658C677.648 472.418 642.501 500.791 641.22 503.829C645.711 505.02 669.797 489.899 675.13 487.256C673.429 496.886 669.397 504.515 665.922 513.347C660.912 526.083 654.181 539.527 649.536 552.149C645.867 562.12 638.379 579.051 636.395 588.501C640.397 583.87 642.299 578.966 645.219 573.727C666.622 535.328 683.892 495.158 700.519 454.508C701.715 451.581 708.72 435.499 708.699 433.42L708.225 432.944ZM363.592 590.575C359.664 577.316 353.912 565.257 350.078 552.335C343.067 536.247 337.389 519.452 330.005 503.47C327.61 498.286 325.965 493.348 324.8 487.76L325.625 488.085C331.303 490.357 355.445 504.221 358.465 503.877L357.65 504.1L358.341 504.055C358.282 500.618 349.358 494.912 346.54 492.372C335.968 482.839 325.074 473.434 315.066 463.327C310.77 458.949 306.912 453.396 302.864 448.776C300.856 446.256 292.291 432.516 290.873 431.446C292.224 438.62 296.257 446.204 299.02 453.022C309.188 478.102 320.945 502.421 330.974 527.582C335.233 538.267 342.128 548.934 346.871 559.436C351.729 569.279 357.05 581.782 363.592 590.575ZM487.112 624.225C464.922 626.185 428.029 635.776 412.612 652.071C416.023 664.958 416.804 673.465 424.802 684.703C447.315 716.333 477.32 714.447 511.841 714.39C539.536 714.327 563.36 706.02 577.032 679.846C582.333 669.698 583.007 662.94 584.727 651.849C560.029 629.425 519.659 621.851 487.112 624.225Z"/><path d="M618.009 345.913C634.753 344.256 655.339 350.057 672.496 349.43C673.625 349.389 674.296 349.779 675.144 350.419C674.328 352.29 660.447 359.034 657.401 361.363C647.186 369.176 640.826 380.613 628.22 385.364C622.381 387.565 614.465 389.994 608.187 391.14C584.463 391.847 571.361 387.816 570.877 418.652C571.872 432.797 576.649 441.1 577.8 452.559C570.875 445.162 564.834 430.986 560.781 421.776C556.888 412.748 550.765 404.066 549.947 394.01C548.765 379.479 555.953 372.533 566.846 364.848C583.399 353.171 597.997 347.509 618.009 345.913ZM604.412 382.928C618.797 382.798 625.459 372.226 631.45 360.478C625.805 360.179 619.472 359.7 613.877 359.576C608.135 359.956 601.187 360.932 596.121 363.756C578.487 373.586 590.99 382.401 604.412 382.928Z"/><path d="M369.565 345.912C376.252 345.602 382.08 346.112 388.674 346.685C407.554 348.323 449.198 370.622 446.481 392.628C444.696 407.078 429.547 442.993 418.752 452.948C420.815 445.756 422.756 440.131 424.479 432.76C426.102 421.264 428.266 400.117 416.331 393.808C409.104 389.987 401.657 391.695 394.07 390.958C381.307 390.048 360.958 383.305 353.044 372.192C343.378 358.619 335.394 358.855 323.393 349.835L322.661 349.28C338.579 349.18 353.58 346.969 369.565 345.912ZM408.096 379.677C412.632 375.641 410.547 370.911 406.563 367.442C396.844 358.98 378.909 359.844 366.808 359.742C371.797 368.684 377.047 379.146 387.672 382.27C394.002 384.131 402.438 383.006 408.096 379.677Z"/><path d="M495.606 1.66258C535.859 -3.54576 561.975 43.3295 566.244 77.3413C570.333 109.926 553.293 134.421 543.12 163.623C538.71 176.283 535.716 190.936 534.187 204.262C532.081 220.355 534.499 238.564 530.912 254.371C527.615 268.898 517.849 276.109 503.605 277.667C459.888 280.853 465.36 234.67 463.672 205.08C463.206 196.911 460.957 181.215 458.452 173.511C450.787 149.934 436.426 127.709 433.285 102.57C430.637 77.254 434.345 56.2804 447.472 34.5031C460.027 13.6734 471.103 4.33712 495.606 1.66258ZM499.045 71.2723C488.458 62.3215 477.465 43.2829 461.32 60.8476C452.7 70.2263 451.775 84.6026 452.931 96.7924C454.118 108.418 459.788 119.124 468.738 126.639C474.506 131.426 477.738 132.327 484.545 135.262C485.769 135.789 485.795 136.095 486.08 136.943C482.165 142.176 474.068 139.786 468.599 138.283C470.782 142.819 472.061 145.204 475.181 149.201C479.379 153.937 482.247 156.596 487.997 159.271C499.286 164.522 511.046 160.654 519.635 152.494C523.731 148.604 526.692 143.273 529.623 138.408C524.049 140.513 518.455 142.475 512.566 140.12C510.77 139.402 510.06 137.715 510.321 135.91C512.757 134.424 518.077 132.928 521.107 131.54C535.216 125.076 540.918 115.134 544.807 100.556C548.674 86.0612 543.357 57.9828 526.293 54.2775C525.184 54.0259 524.049 53.9069 522.912 53.923C512.199 54.1327 507.129 64.9947 499.045 71.2723ZM478.884 167.535C485.141 178.554 487.282 210.209 487.379 223.441C487.424 229.667 487.195 238.517 488.294 244.515C490.133 251.543 494.415 259.134 503.07 256.415C512.638 253.408 513.031 240.243 512.901 232.023C512.628 214.727 512.507 197.531 515.602 180.436C516.039 178.016 518.287 169.399 518.223 167.767L517.922 167.489C505.17 175.309 491.989 174.016 478.884 167.535ZM462.287 35.3626C479.969 28.8372 484.85 32.2782 498.484 42.81C499.484 41.8293 500.427 40.8426 501.51 39.9594C513.778 30.9267 521.571 28.1281 536.182 35.2049C527.49 19.7653 512.578 10.7303 494.601 12.8324C478.671 15.8321 473.809 18.1042 464.132 32.4325C463.488 33.391 462.873 34.3682 462.287 35.3626Z"/><path d="M477.081 65.2932C478.193 65.492 477.813 65.4055 478.837 66.0166C479.922 68.6555 477.261 74.5211 476.186 77.7496C472.591 88.5499 472.893 103.954 480.789 112.826C483.22 115.557 487.02 116.896 489.127 120.944C488.935 124.332 485.292 123.605 482.73 123.431C465.414 118.257 459.99 91.4145 466.075 76.0721C468.264 70.5517 472.041 67.9977 477.081 65.2932Z"/><path d="M519.051 64.374C538.778 64.2882 542.024 111.24 516.871 123.759C513.899 124.241 511.363 124.105 508.804 122.39C507.239 118.329 516.124 115.981 518.955 112.437C521.943 108.696 522.758 106.766 523.813 102.135C525.101 96.6056 525.261 90.8736 524.282 85.2816C523.137 78.9181 518.098 68.1249 519.051 64.374Z"/><path d="M709.665 512.694C717.164 512.672 730.85 516.583 738.644 518.03C800.467 529.506 862.357 540.585 924.104 552.465C932.815 554.141 941.147 554.847 949.697 557.53C954.01 562.602 956.692 569.828 958.918 576.126C948.062 579.014 938.045 580.932 926.88 584.385C892.095 595.406 858.487 609.846 826.549 627.494C816.667 633.049 807.922 638.833 799.206 646.135C796.637 648.286 793.66 651.103 790.661 652.507C787.409 652.64 772.797 646.174 768.995 644.698L721.795 626.341C710.207 621.973 692.956 616.69 682.509 611.217C686.127 600.895 691.018 585.142 695.247 575.569L767.656 601.554C779.504 605.857 791.327 610.601 803.217 614.753C809.137 616.821 815.962 618.643 822.051 620.514C836.473 612.738 849.789 604.441 865.418 599.179C872.761 596.708 878.861 593.981 886.589 592.622C879.808 590.52 871.534 590.63 864.381 588.474C846.458 583.074 827.824 580.552 809.852 575.277C796.986 571.502 783.866 569.352 770.811 566.483C761.695 564.48 752.632 561.478 743.582 559.175C727.522 555.121 709.961 552.454 694.262 547.271C695.587 541.749 706.063 516.445 709.665 512.694Z"/><path d="M286.766 513.838C290.323 514.564 293.745 523.152 294.997 526.367C296.46 530.121 305.583 544.717 305.741 546.77C302.474 548.368 298.534 549.177 295.048 550.3C283.859 553.906 272.416 555.977 260.958 558.659L194.625 574.389L151.638 584.369C137.243 587.811 125.633 591.747 110.626 592.399C135.116 599.582 152.363 609.967 174.611 620.399C179.421 618.136 185.243 617.244 190.549 615.302C213.298 606.976 236.207 599.084 259.35 591.918C271.417 588.182 288.764 580.414 300.689 578.217C305.237 589.472 310.498 600.809 314.909 611.863C309.194 616.146 287.763 623.172 279.899 626.022C262.246 632.927 244.926 640.433 227.124 646.823C221.185 648.955 216.376 651.531 210.124 653.225C201.237 647.492 192.26 639.726 183.163 634.187C139.25 607.982 91.6066 588.607 41.8677 576.727C43.6279 572.074 48.5548 560.853 51.4993 557.517C59.8604 554.877 68.7431 554.599 77.1588 552.932C91.5762 550.076 106.041 547.486 120.456 544.694L212.57 527.588L257.82 519.115C267.952 517.224 276.416 515.344 286.766 513.838Z"/><path d="M316.766 561.72C318.874 562.636 323.202 567.224 324.975 569.236C365.105 614.797 396.464 670.698 411.724 729.509C427.846 792.146 429.422 857.919 428.339 922.254C427.91 947.744 428.953 974.01 427.996 999.393C423.641 997.82 388.902 965.435 384.677 960.492C383.995 953.549 384.638 941.777 384.711 934.368L384.815 890.019C384.842 878.137 384.898 866.364 384.456 854.49C384.126 848.479 385.16 841.537 384.624 835.595C381.375 799.599 378.684 761.287 370.881 725.976C362.353 687.097 350.775 648.951 336.253 611.891C332.804 602.85 329.477 593.798 325.877 584.808C323.35 578.496 316.88 568.058 316.766 561.72Z"/><path d="M671.563 582.876L672.045 583.329C672.064 583.616 652.428 636.048 650.457 642.099C640.309 673.008 632.262 704.568 626.371 736.563C616.786 786.07 614.432 836.282 615.124 886.561C615.448 910.104 616.398 936.747 615.565 960.113C606.998 969.921 594.996 978.524 585.584 987.614C581.417 991.639 577.14 995.71 572.9 999.652C569.754 993.967 570.823 981.908 570.86 975.104L571.008 940.568C571.197 883.205 570.291 826.571 578.557 769.523C587.011 711.171 610.504 655.5 647.331 609.411C652.839 602.518 664.58 587.97 671.563 582.876Z"/><path d="M957.112 585.965L958.384 586.133C957.821 587.519 956.637 588.565 955.255 589.113C936.42 596.58 919.923 605.328 902.754 616.132C878.992 631.087 854.24 647.67 833.728 667.035C801.853 697.036 777.109 733.8 761.317 774.624C758.954 780.646 757.043 786.883 754.93 792.999C752.827 799.08 750.062 804.816 748.326 811.03C744.369 825.186 740.299 838.025 737.752 852.592C737.401 854.6 737.046 857.653 736.073 859.454C732.605 865.872 649.613 933.809 636.094 945.078L634.868 945.034C634.444 942.821 645.011 932.33 646.998 929.919C670.695 900.55 693.786 865.8 707.716 830.571C721.412 795.935 730.157 762.37 749.323 729.412C779.237 677.973 825.807 640.327 879.314 615.4C890.752 610.071 901.861 604.552 913.565 599.818C927.294 594.507 942.918 589.874 957.112 585.965Z"/><path d="M43.5249 586.875C58.3387 587.398 108.995 610.29 123.442 617.166C163.742 636.122 199.432 663.626 228.031 697.766C231.669 702.158 236.566 707.905 239.778 712.482C242.885 717.01 245.152 722.336 248.081 726.936C259.993 745.65 268.853 764.32 276.485 785.183C286.553 812.708 295.37 841.955 310.139 867.451C321.542 887.136 333.727 906.742 347.911 924.564C352.675 930.559 365.953 942.396 368.157 948.608C365.9 948.115 361.641 944.306 359.82 942.734C333.076 919.654 306.481 896.36 280.766 872.131C276.101 867.735 269.323 863.13 265.418 858.271C263.695 856.126 262.799 845.267 261.514 842.31C259.87 837.431 258.042 830.422 256.061 825.576C250.891 812.929 247.073 796.736 242.209 784.424C234.319 764.452 224.083 742.949 213.248 724.452C209.675 718.892 205.14 713.54 201.259 708.253C171.087 667.15 128.394 634.526 84.8978 608.544C80.4487 605.887 75.4367 603.561 71.0638 600.875C62.9592 595.898 51.3588 593.076 44.0853 587.325L43.5249 586.875Z"/><path d="M427.966 36.1934L429.437 36.2473C429.609 37.1832 427.655 39.4572 427.012 40.3718C407.613 68.0703 410.738 99.468 418.823 130.439C423.021 146.523 427.069 161.264 433.278 176.724C435.246 181.624 436.061 189.364 438.266 194.604C438.503 195.166 437.779 196.975 437.021 197.091C431.506 198.611 402.28 207.663 398.198 206.665C396.9 204.869 392.608 193.051 391.358 190.064C382.804 164.012 370.373 138.443 362.267 112.29C360.045 105.124 345.989 70.8346 346.296 66.4829C351.688 60.2504 398.897 44.2045 408.692 41.0478C411.725 40.0706 424.124 37.1124 427.966 36.1934Z"/><path d="M257.795 456.823C270.448 456.012 272.354 453.664 273.663 468.248C274.107 473.189 278.86 483.767 277.673 488.165C275.949 489.282 233.411 495.263 227.533 496.2L138.948 510.95C119.773 514.321 98.3246 518.486 79.162 521.163C73.6904 521.946 67.501 523.232 61.9999 524.258C66.0078 511.445 71.7513 498.838 75.9194 486.067C76.9847 482.803 78.3003 478.463 80.0797 475.567C84.5204 472.857 130.512 469.823 137.959 468.974C166.043 465.512 194.189 462.58 222.383 460.178C234.385 459.042 245.538 457.357 257.795 456.823Z"/><path d="M729.058 456.135C740.937 455.201 766.936 458.631 779.186 459.899L866.321 468.962C876.465 470.025 886.624 470.947 896.794 471.728C900.899 472.065 918.102 472.614 919.249 476.123C921.518 483.062 936.878 518.834 935.401 523.673C933.538 524.172 930.853 523.491 928.849 523.154C916.366 519.907 898.578 517.298 885.656 514.871C854.582 509.048 823.429 503.655 792.206 498.695C768.9 495.008 744.642 491.799 721.588 487.062C723.956 478.348 725.971 463.428 729.058 456.135Z"/><path d="M567.193 35.7681C578.936 39.2928 591.969 41.8303 603.584 45.4567C620.008 50.5846 634.798 57.043 650.322 64.2128C647.774 74.2405 642.745 84.6415 639.32 94.458L605.944 187.434C604.053 192.652 601.209 201.005 598.725 205.638C591.33 204.554 565.577 199.061 559.747 195.789C563.27 182.477 567.02 169.227 570.996 156.043C581.603 120.409 595.866 80.5698 575.35 46.4404C573.773 43.8165 567.431 37.4446 567.193 35.7681Z"/><path d="M116.405 387.308C120.35 387.151 124.659 387.84 128.621 388.004C139.631 388.46 150.849 390.081 161.719 390.826L236.399 395.954C241.799 396.309 257.599 396.31 261.261 397.337C264.082 399.846 263.815 426.862 261.836 430.101C259.413 431.622 236.936 431.021 231.72 431.353L145.021 437.351C128.488 438.508 110.163 441.089 93.5956 440.953C96.7358 432.841 100.59 424.253 103.728 416.1C106.14 409.834 112.294 391.669 116.405 387.308Z"/><path d="M872.001 388.476C875.898 388.109 880.388 387.299 883.763 389.092C886.247 392.849 891.238 406.262 893.53 411.364C897.027 419.144 904.606 433.138 906.397 440.924C892.528 441.29 873.313 438.529 859.084 437.457L781.131 432.009C767.079 430.479 750.917 431.823 738.02 430.097C737.411 422.386 737.493 404.964 737.828 397.107C745.371 395.649 768.103 394.892 776.851 394.321L872.001 388.476Z"/><path d="M676.96 77.4572C683.937 78.7865 736.986 111.059 744.369 117.192C737.167 122.586 729.388 124.658 721.305 130.877C698.452 148.459 684.044 173.053 668.479 196.732C663.483 204.829 660.414 213.427 654.822 221.303C642.706 216.725 638.229 213.854 624.954 210.056C626.704 204.064 630.887 195.164 633.205 188.824C640.794 168.068 649.335 147.722 657.4 127.15L670.244 93.7862C672.001 89.2495 674.758 81.2165 676.96 77.4572Z"/><path d="M319.578 80.4893C320.208 80.4835 321.22 80.3264 321.456 80.7199C324.369 85.575 327.477 96.0927 329.627 101.412C340.7 128.518 351.627 155.683 362.409 182.906C365.626 191.177 371.264 202.675 373.146 210.765C367.564 213.617 348.701 221.184 342.727 222.422C338.916 215.991 335.225 208.693 331.647 202.047C328.719 197.693 326.312 192.506 323.426 187.893C309.523 165.668 294.499 145.345 272.971 129.792C267.399 125.766 262.288 123.602 256.719 120.051L256.182 119.704C259.508 116.571 266.269 112.747 270.277 110.101C286.172 99.6082 303.41 90.4025 319.578 80.4893Z"/><path d="M845.13 304.843C846.282 304.717 848.34 304.38 849.298 305.138C850.445 306.044 870.385 357.472 871.158 361.982C863.5 362.38 855.225 361.296 847.511 361.29C817.693 361.266 788.802 359.502 758.911 359.366C749.377 359.28 738.554 359.419 729.137 358.806C728.571 350.366 728.425 333.113 728.574 324.676C739.634 321.85 753.293 320.986 764.723 318.805C791.237 313.744 818.872 310.93 845.13 304.843Z"/><path d="M150.564 304.142C157.487 304.013 164.047 306.551 170.782 307.586C178.703 308.804 186.475 310.623 194.344 312.007L247.668 321.054C254.123 322.193 265.89 323.812 271.61 325.662C271.797 329.557 271.349 356.675 269.763 358.612C265.53 360.261 255.514 359.844 250.61 359.875L172.837 360.059C160.816 360.097 140.868 360.848 129.532 359.72C130.57 354.513 147.967 308.162 150.564 304.142Z"/><path d="M765.711 134.778C765.987 134.793 767.031 135.056 767.345 135.128C770.419 137.599 779.756 151.986 781.032 155.873C784.021 164.971 789.892 178.617 791.947 187.676C787.434 190.349 781.822 192.063 777.06 194.237C769.187 197.832 757.991 203.181 751.116 208.368C740.604 216.299 730.732 225.502 721.211 234.49C717.312 238.171 708.55 249.366 705.142 251.241C700.334 249.247 690.054 238.115 684.463 235.481C682.666 234.635 680.214 233.604 678.933 232.194C678.575 230.302 679.013 228.146 679.903 226.435C700.137 187.548 723.449 152.04 765.711 134.778Z"/><path d="M230.307 137.227C239.097 138.084 258.422 150.28 265.062 156.324C270.461 161.238 278.898 170.078 283.997 175.629C287.716 179.669 291.235 183.889 294.539 188.275C300.918 196.887 306.738 206.588 312.476 215.643C314.741 219.216 321.999 228.58 321.853 232.067C321.125 232.968 314.293 236.555 312.004 238.213C306.38 242.289 301.204 247.742 295.728 251.398C292.159 250.544 276.642 232.091 272.566 228.141C251.674 207.893 232.313 196.779 204.079 188.664C205.7 183.933 209.376 176.417 211.494 171.637C216.597 160.117 221.559 146.556 230.307 137.227Z"/><path d="M546.051 209.978C547.032 209.917 548.53 209.854 549.56 209.952C599.243 214.69 662.479 233.899 697.761 270.78C707.096 280.537 708.785 295.871 707.953 308.413C704.129 307.001 703.449 305.739 700.617 302.948C668.054 270.869 620.61 255.079 576.425 247.771C566.502 246.13 556.832 246.098 547.282 244.357L546.463 244.204C545.726 235.224 545.586 218.957 546.051 209.978Z"/><path d="M185.586 215.603C187.794 216.023 194.898 219.32 197.31 220.378C221.488 230.698 244.338 243.889 265.366 259.666C269.552 262.864 274.188 266.141 277.478 270.207C273.614 279.987 270.692 288.69 266.02 298.227C263.035 297.809 259.681 296.842 256.713 296.077C249.736 294.158 242.743 291.465 235.867 289.651C226.625 287.214 216.971 285.284 207.657 283.086C199.732 281.243 191.869 278.573 183.958 276.737C176.951 275.111 169.428 273.929 162.326 272.673C164.074 261.947 180.362 226.338 185.586 215.603Z"/><path d="M442.567 211.098C444.701 210.819 447.448 210.828 449.647 210.769C450.508 214.731 453.081 243.398 449.509 244.576C442.874 246.765 430.779 246.887 423.297 247.997C416.763 249.012 410.257 250.204 403.787 251.571C365.671 260.016 324.17 278.38 294.59 304.047L293.087 305.312C291.774 306.421 291.151 307.265 289.462 307.468C288.891 306.85 288.634 306.859 288.609 305.948C287.814 277.054 308.19 261.903 330.092 248.47C365.574 226.708 401.954 217.244 442.567 211.098Z"/><path d="M811.245 217.304C815.338 219.054 836.03 268.176 836.03 272.737C834.261 274.553 814.278 277.976 810.117 278.922C789.113 283.586 768.199 288.648 747.387 294.105C735.955 296.163 734.536 300.076 729.982 285.76C728.5 281.101 723.76 272.92 724.05 268.171C727.767 261.869 772.786 235.339 781.947 230.406C788.285 226.994 803.845 220.365 811.245 217.304Z"/><path d="M677.226 633.585C681.448 634.283 689.888 639.038 694.112 641.054L741.07 663.788C749.935 668.154 759.198 671.595 767.224 677.344C760.804 687.445 752.885 699.712 747.009 709.921C745.803 712.009 744.95 713.957 743.081 715.406C741.472 715.786 741.26 715.719 739.709 714.815C714.738 700.267 689.323 686.675 663.957 672.876C665.832 666.369 674.326 638.891 677.226 633.585Z"/><path d="M318.16 636.171C319.281 636.077 319.681 636.163 320.809 636.292C322.285 637.52 333.452 669.275 334.403 673.082C325.671 680.737 306.613 690.259 296.034 696.438C285.699 702.07 275.527 707.851 265.474 713.975C260.977 716.714 257.977 719.04 254.957 713.661C251.209 705.143 239.303 685.377 234.365 677.755C251.678 669.622 268.947 661.268 286.002 652.622C296.866 647.115 307.684 642.382 318.16 636.171Z"/><path d="M656.743 699.567C662.847 700.323 719.487 734.15 726.487 739.381C722.501 752.081 715.969 766.804 710.858 779.172C710.487 780.512 710.561 780.461 709.689 781.524C705.122 781.316 689.096 769.761 684.149 766.7L658.154 750.621C655.443 748.953 646.641 744.275 645.236 742.129C644.677 737.108 654.376 705.782 656.743 699.567Z"/><path d="M339.867 700.591L341.036 700.645C345.169 702.837 352.912 733.953 355.399 740.915C348.521 746.612 299.273 779.249 293.414 780.694C292.116 781.014 291.686 780.783 290.596 780.09C285.162 770.288 282.168 758.325 276.861 748.32C275.732 746.193 274.478 743.692 273.76 741.418C277.093 736.725 331.022 705.319 339.867 700.591Z"/><path d="M641.497 767.787C645.65 769.148 692.81 800.718 698.798 806.57C700.372 808.107 695.262 821.97 694.129 825.395C693.675 826.457 693.706 826.383 692.843 827.16C691.201 826.785 686.257 823.371 684.002 821.987C670.348 813.607 650.609 801.937 639.737 790.79C637.165 788.153 640.708 772.187 641.497 767.787Z"/><path d="M356.7 769.433L357.55 769.714C359.354 771.809 361.64 786.005 362.128 789.313C356.94 795.214 313.516 826.214 306.937 828.189C304.739 822.818 300.416 812.649 301.203 807.22C304.505 802.147 322.698 791.454 328.767 787.487C336.928 782.154 348.119 773.902 356.7 769.433Z"/></svg>